<svg width="71" height="71" viewBox="0 0 71 71" fill="none" xmlns="http://www.w3.org/2000/svg">
<path d="M35.2792 0.4375C15.3099 0.4375 -0.725983 17.1378 0.302737 37.3477C1.21043 55.1372 15.552 69.4777 33.3428 70.3853C53.5541 71.4744 70.2557 55.3792 70.2557 35.4114C70.3162 16.1092 54.6433 0.4375 35.2792 0.4375ZM47.2608 22.8256C47.2608 23.1887 47.0187 23.4307 46.6556 23.4307H38.1233V28.0294H46.6556C47.0187 28.0294 47.2608 28.2714 47.2608 28.6344V37.1661C47.2608 37.5292 47.0187 37.7712 46.6556 37.7712H38.7284V56.4683C38.7284 56.7709 38.4864 57.0734 38.1233 57.0734H30.0751C29.7725 57.0734 29.47 56.7709 29.47 56.4683V37.7107H23.9633C23.6607 37.7107 23.3582 37.4082 23.3582 37.1056V28.5739C23.3582 28.2714 23.6607 27.9689 23.9633 27.9689H29.47V24.5199C29.47 24.4594 29.47 24.3989 29.47 24.3989C29.47 19.4977 30.4987 13.8704 38.6074 13.8099H38.6679H46.6556C47.0187 13.8099 47.2608 14.1124 47.2608 14.415V22.8256Z" fill="white"/>
<path d="M38.1236 23.4304V28.0291H46.6559C47.019 28.0291 47.261 28.2711 47.261 28.6341V37.1658C47.261 37.5289 47.019 37.7709 46.6559 37.7709H38.7287V56.468C38.7287 56.7706 38.4866 57.0731 38.1236 57.0731H30.0753C29.7728 57.0731 29.4702 56.7706 29.4702 56.468V37.7104H23.9635C23.661 37.7104 23.3584 37.4079 23.3584 37.1053V28.5736C23.3584 28.2711 23.661 27.9686 23.9635 27.9686H29.4702V24.5196C29.4702 24.4591 29.4702 24.3986 29.4702 24.3986C29.4702 19.4974 30.4989 13.8701 38.6077 13.8096H38.6682H46.6559C47.019 13.8096 47.261 14.1121 47.261 14.4147V22.8253C47.261 23.1884 47.019 23.4304 46.6559 23.4304H38.1236Z" fill="#48A0F0" fill-opacity="0.7"/>
</svg>
