<svg width="486" height="230" viewBox="0 0 486 230" fill="none" xmlns="http://www.w3.org/2000/svg">
<path d="M60.8466 67.3079C64.2797 66.8958 67.6122 69.5139 67.8504 73.4322C68.1802 80.0482 68.1195 86.6336 68.0679 93.2954C68.0257 103.903 67.8308 114.529 67.7214 125.222C67.6576 130.492 66.2264 132.753 62.7476 132.784C59.107 132.757 56.2718 129.769 56.1801 125.137C55.9784 117.654 56.0147 110.22 56.0082 101.786C51.6749 103.08 47.4667 104.127 43.3898 105.622C42.7978 105.848 42.3798 107.523 42.3463 108.533C42.2061 113.813 42.304 119.141 42.2493 124.487C42.28 127.966 42.0726 131.396 37.4768 131.793C33.8729 132.071 30.696 128.815 30.708 124.402C30.619 113.346 30.8352 102.254 30.8988 91.1792C30.9383 86.9954 31.0632 82.8787 30.9501 78.7132C30.8217 73.7756 32.4542 71.258 36.0094 71.2181C39.8697 71.1417 42.9215 74.6448 42.8332 79.0667C42.7632 83.6411 42.7604 88.1301 42.6782 93.2477C47.0481 92.2587 50.9695 91.4011 54.7779 90.2474C55.5225 90.0032 56.3311 88.3583 56.3646 87.3482C56.5475 83.0698 56.5687 78.7334 56.5136 74.4062C56.4158 71.0128 56.498 67.8299 60.8466 67.3079ZM125.805 115.386C126.058 116.207 126.311 117.027 126.912 118.813C126.183 119.829 125.359 122.636 124.215 122.774C122.003 123.039 118.774 122.576 117.361 121.12C115.322 118.966 114.08 115.71 113.409 112.695C112.511 109.088 110.775 109.451 107.781 109.656C99.4107 110.196 94.9585 114.368 94.1838 122.742C94.0251 123.999 93.4759 125.226 93.0792 126.434C92.112 129.336 90.3391 131.329 87.0249 130.798C83.7017 130.191 81.5868 128.046 81.5561 124.567C81.5072 122.87 82.1541 121.167 82.4958 119.501C87.0114 100.386 91.3653 81.2119 96.0335 62.0778C96.7444 58.9743 98.3036 55.8463 100.174 53.3774C102.985 49.7123 109.234 52.135 110.8 57.4417C112.207 62.071 112.946 66.9353 114.209 71.6592C117.97 86.2215 121.892 100.842 125.805 115.386ZM100.777 99.6617C103.783 98.9139 106.044 98.4103 108.678 97.7846C107.463 92.8227 106.285 88.1659 105.107 83.5091L104.326 83.4481C103.166 88.6177 102.092 93.8544 100.777 99.6617ZM184.218 61.6298C186.352 67.7971 183.715 72.9118 179.758 77.3338C173.069 84.7923 164.243 88.6378 154.89 91.3084C154.365 91.4488 153.85 91.6655 153.181 91.9005C152.66 99.1604 152.321 106.011 151.678 112.899C151.403 116.414 150.757 120.052 146.039 120.077C142.017 120.095 139.185 116.488 139.37 111.59C139.623 102.737 140.105 93.8571 140.273 84.9372C140.278 79.8287 139.885 74.6135 139.424 69.4837C139.308 67.8724 138.2 66.3802 137.473 64.8422C135.954 61.8517 136.005 59.0594 139.139 57.445C148.819 52.3361 159.023 49.0215 170.177 50.3912C176.94 51.282 181.954 55.014 184.218 61.6298ZM171.905 67.3644C174.352 63.8976 172.936 61.1268 168.609 61.1819C165.207 61.2034 161.819 61.997 158.386 62.4091C154.791 62.7633 153.333 64.7957 153.458 68.418C153.556 71.8115 153.272 75.2507 153.175 79.5962C161.002 77.1088 167.481 73.6998 171.905 67.3644ZM245.829 54.2338C247.962 60.4011 245.326 65.5158 241.368 69.9378C234.679 77.3963 225.854 81.2418 216.501 83.9124C215.976 84.0528 215.46 84.2694 214.792 84.5044C214.271 91.7643 213.932 98.6153 213.289 105.503C213.014 109.018 212.367 112.656 207.649 112.681C203.627 112.699 200.795 109.092 200.981 104.194C201.234 95.3414 201.716 86.4611 201.883 77.5412C201.889 72.4327 201.495 67.2175 201.034 62.0877C200.918 60.4764 199.81 58.9842 199.084 57.4462C197.564 54.4556 197.616 51.6634 200.75 50.0489C210.43 44.9401 220.634 41.6255 231.788 42.9952C238.55 43.886 243.564 47.6179 245.829 54.2338ZM233.516 59.9684C235.963 56.5016 234.547 53.7308 230.22 53.7859C226.817 53.8074 223.43 54.601 219.997 55.0131C216.402 55.3673 214.943 57.3997 215.069 61.022C215.167 64.4154 214.883 67.8547 214.785 72.2002C222.613 69.7128 229.091 66.3038 233.516 59.9684ZM296.018 35.3622C297.077 37.0924 297.053 40.1135 296.281 42.0636C293.925 48.228 290.513 53.9775 288.32 60.1999C286.388 65.3847 285.998 71.1584 284.143 76.3341C281.36 84.0976 277.616 91.5895 277.793 100.159C277.796 101.474 278.123 102.905 277.632 103.97C276.878 106.073 275.956 109.356 274.525 109.683C272.484 110.083 269.249 108.923 267.97 107.297C266.502 105.383 265.965 102.198 266.121 99.625C266.578 93.7659 267.893 87.9585 268.436 82.1665C268.668 79.5848 268.482 76.7437 267.578 74.3757C264.398 65.9349 260.769 57.6255 257.436 49.2031C255.657 44.6959 256.624 41.7937 259.594 40.7408C262.935 39.5657 266.612 41.8329 268.126 46.0625C269.893 51.1129 271.746 56.2304 273.843 62.0925C278.014 53.0015 281.465 45.003 285.325 37.1875C286.259 35.2955 288.413 33.2569 290.235 32.9608C292.048 32.5884 295.063 33.8516 296.018 35.3622Z" fill="white"/>
<path d="M280.892 122.888L280.901 122.964C284.182 124.505 285.607 127.352 284.237 130.767C277.936 146.615 276.319 163.447 273.98 180.058C273.583 183.201 273.775 186.738 269.967 187.891C266.311 189.027 263.415 186.821 261.474 184.19C258.254 179.933 255.608 175.298 252.752 170.843C251.882 169.399 251.156 167.861 249.956 165.606C246.426 172.299 243.28 178.326 240.067 184.438C238.498 187.49 237.061 190.99 232.633 190.206C228.138 189.508 226.878 186.099 226.316 182.065C223.85 166.031 221.221 149.94 218.755 133.907C217.876 128.518 218.993 126.217 222.502 125.796C226.079 125.289 229.2 128.087 230.037 132.475C231.862 143.168 233.773 153.928 235.803 165.68C238.561 160.938 240.392 156.848 243.077 153.43C244.814 151.132 247.685 148.621 250.279 148.309C254.161 147.766 256.05 151.254 257.387 154.653C259.129 158.855 261.025 163.039 263.249 168.035C265.098 158.294 266.514 149.456 268.491 140.783C269.65 135.614 271.371 130.609 273.33 125.653C274.651 122.476 277.611 121.347 280.892 122.888ZM316.555 125.107C326.382 127.023 332.241 133.285 333.468 143.508C335.093 156.392 326.414 173.067 314.91 179.091C306.607 183.416 297.693 180.074 295.516 170.972C291.716 154.789 295.393 139.643 303.848 125.627C306.241 121.702 309.616 121.452 313.531 123.768C314.529 124.345 315.527 124.921 316.555 125.107ZM306.627 169.406C315.852 165.667 323.353 152.075 321.808 142.431C321.613 141.449 321.619 140.21 321.002 139.587C319.4 137.845 317.365 135.071 315.762 135.263C313.761 135.349 310.804 137.793 310.337 139.707C308.381 147.913 307.13 156.189 305.803 164.474C305.605 166.046 306.35 167.736 306.627 169.406ZM397.745 159.009C398.92 160.416 399.543 163.669 398.697 165.009C397.852 166.348 394.694 167.114 392.875 166.791C387.553 165.65 382.435 163.633 377.171 162.33C371.84 161.113 366.487 160.362 360.716 159.353C360.765 162.984 360.674 166.091 360.888 169.16C360.986 172.554 360.467 175.325 356.518 175.954C353.323 176.415 349.942 174.034 349.349 170.391C348.675 166.061 348.135 161.559 348.137 157.07C348.085 146.319 348.338 135.532 348.514 124.753C348.658 118.855 349.787 117.945 355.591 117.945C356.677 117.969 357.977 117.194 358.801 116.321C362.622 112.69 366.781 109.946 372.366 111.984C378.197 114.148 380.498 119.134 381.252 124.77C382.412 133.144 379.755 140.66 375.004 147.499C374.485 148.335 373.966 149.172 373.246 150.264C379.642 151.973 385.535 153.355 391.245 155.146C393.586 155.948 396.21 157.181 397.745 159.009ZM360.511 144.75C367.457 139.428 371.317 129.678 368.847 123.938C362.522 129.263 360.419 136.249 360.511 144.75ZM438.752 128.393C443.187 135.677 447.966 142.61 455.003 147.724C457.454 149.442 459.309 152.006 457.283 155.112C455.132 158.466 451.598 158.039 449.34 155.988C443.883 151.149 438.973 145.702 433.861 140.511C433.064 139.678 432.488 138.741 431.001 136.675C428.618 144.546 426.44 151.54 424.27 158.611C423.95 159.81 423.877 161.135 423.566 162.41C422.446 167.265 417.53 168.862 414.155 165.243C412.381 163.366 410.947 160.442 410.892 158.05C410.632 144.925 410.686 131.839 410.903 118.812C410.969 112.922 411.579 107.045 411.952 101.118C412.214 96.2114 414.084 93.7425 417.429 93.8828C421.469 94.0169 424.463 97.6818 424.097 102.369C423.618 108.695 422.978 114.963 422.413 121.222C422.322 122.394 422.536 123.529 422.575 125.15C427.619 116.883 432.193 109.214 436.862 101.688C438.437 99.3321 440.249 97.025 442.251 95.0047C445.01 92.197 448.479 92.0901 451.156 94.4001C453.936 96.9298 453.79 99.5786 451.275 103.131C446.918 109.381 442.893 115.823 438.544 122.149C437.037 124.42 437.324 126.165 438.752 128.393Z" fill="white"/>
</svg>
