<svg width="71" height="71" viewBox="0 0 71 71" fill="none" xmlns="http://www.w3.org/2000/svg">
<path d="M52.8809 23.8718V47.0638C52.8809 50.4548 50.0954 53.2403 46.7044 53.2403H23.6335C20.2425 53.2403 17.457 50.4548 17.457 47.0638V23.8718C17.457 20.4808 20.2425 17.6953 23.6335 17.6953H46.7044C50.0954 17.6953 52.8809 20.4808 52.8809 23.8718Z" fill="#48A0F0" fill-opacity="0.7"/>
<path d="M47.4303 22.6006H42.041V28.1715H47.4303V22.6006Z" fill="white"/>
<path d="M44.1002 35.3774C44.1002 40.3428 40.1037 44.3393 35.1383 44.3393C30.1729 44.3393 26.1763 40.3428 26.1763 35.3774C26.1763 34.0452 26.4791 32.7736 27.0241 31.623H21.0898V47.0037C21.0898 48.3964 22.2404 49.5469 23.6331 49.5469H46.704C48.0968 49.5469 49.2473 48.3964 49.2473 47.0037V31.623H43.313C43.7975 32.7736 44.1002 34.0452 44.1002 35.3774Z" fill="white"/>
<path d="M35.1384 40.7061C38.1055 40.7061 40.4671 38.3445 40.4671 35.3774C40.4671 33.9241 39.8616 32.5919 38.9533 31.623H31.3841C30.4152 32.5919 29.8703 33.9241 29.8703 35.3774C29.8097 38.3445 32.2318 40.7061 35.1384 40.7061Z" fill="white"/>
<path d="M35.168 0.4375C15.8514 0.4375 0.167969 16.1209 0.167969 35.4375C0.167969 54.7541 15.8514 70.4375 35.168 70.4375C54.4846 70.4375 70.168 54.7541 70.168 35.4375C70.168 16.1209 54.5451 0.4375 35.168 0.4375ZM52.9102 47.0032C52.9102 50.3942 50.1247 53.1797 46.7337 53.1797H23.6628C20.2718 53.1797 17.4863 50.3942 17.4863 47.0032V23.8718C17.4863 20.4808 20.2718 17.6953 23.6628 17.6953H46.7337C50.1247 17.6953 52.9102 20.4808 52.9102 23.8718V47.0032Z" fill="white"/>
</svg>
