<svg width="103" height="128" viewBox="0 0 103 128" fill="none" xmlns="http://www.w3.org/2000/svg">
<g clip-path="url(#clip0_2253_902)">
<path d="M-15.6973 104.242V61.8396C-15.6973 61.2694 -15.3044 60.7424 -14.6662 60.4575L50.7545 31.226C52.1294 30.6116 53.8476 31.3796 53.8476 32.608V73.1682C53.8476 73.7384 54.2404 74.2654 54.8786 74.5503L100.265 94.8302C101.64 95.4446 101.64 96.9802 100.265 97.5942L34.8447 126.826C34.2065 127.111 33.4209 127.111 32.7827 126.826L-14.6662 105.625C-15.3044 105.339 -15.6973 104.812 -15.6973 104.242Z" fill="white"/>
<path d="M70.1449 95.0816L68.4243 94.125C60.0737 98.7685 51.7227 103.412 43.3721 108.056C43.3721 108.056 61.2959 118.022 61.2994 118.025C67.6243 114.507 80.9455 107.1 86.3517 104.094C86.3517 104.094 74.6328 97.5772 70.1449 95.0816Z" fill="white"/>
<path d="M78.1459 88.2462C77.8489 88.0248 78.5819 87.5882 78.2451 87.7008C78.1659 87.7275 78.0862 87.7892 78.0135 87.8297L77.0991 88.338L73.7416 90.2048L62.6877 96.3514C58.2085 98.8425 53.7288 101.333 49.2496 103.824C45.3886 105.971 41.528 108.118 37.667 110.265L33.8476 112.389C33.254 112.719 32.5869 113.01 32.0314 113.399C32.0067 113.416 31.9773 113.429 31.9509 113.443H32.825C30.3174 112.049 27.8098 110.655 25.3022 109.26L14.8851 103.468C14.624 103.323 14.2785 103.035 13.9824 102.966C13.969 102.963 13.9525 102.942 13.9391 102.942C14.4249 102.942 14.0209 103.661 13.9391 103.659L13.9413 103.658C13.9426 103.659 13.9534 103.65 13.9551 103.651C13.9707 103.658 14.0664 103.586 14.082 103.58C14.6777 103.333 15.2457 102.933 15.806 102.622L23.8141 98.1686L35.2845 91.7905L47.2299 85.1485C50.3285 83.4255 53.427 81.7026 56.5256 79.9796L59.2016 78.4914L59.8995 78.1036C60.3113 77.8747 59.8047 78.1787 59.6709 78.0065C59.8168 78.1941 60.2736 78.3417 60.4801 78.4564L62.3102 79.4742L67.7259 82.4857L77.726 88.0465L78.3217 88.3776C79.2885 88.9151 80.1617 87.4744 79.1958 86.9373C76.5973 85.4925 73.9988 84.0472 71.4003 82.6024C67.98 80.7006 64.5602 78.7987 61.1399 76.8973C60.875 76.7501 60.6096 76.5708 60.3191 76.472C59.8502 76.3123 59.4393 76.4399 59.0384 76.6563C58.4176 76.9911 57.8054 77.3418 57.1893 77.6846L48.8296 82.333C44.8967 84.5197 40.9643 86.7067 37.0315 88.8934L25.003 95.5821C21.9927 97.2559 18.9825 98.93 15.9722 100.604L13.5789 101.934C13.4222 102.022 13.259 102.102 13.107 102.197C12.2454 102.732 12.2078 103.832 13.0745 104.388C13.9088 104.923 14.8293 105.364 15.6969 105.846L21.2182 108.916C24.5848 110.788 27.9513 112.66 31.3179 114.533L31.9504 114.884C32.2202 115.035 32.5548 115.035 32.8245 114.884C34.4199 113.997 36.0158 113.11 37.6112 112.223L49.0391 105.868C53.5963 103.334 58.1535 100.8 62.7106 98.2658L74.2278 91.8614L77.8044 89.8729C78.2637 89.6177 78.7516 89.385 79.1928 89.1006C79.8998 88.6453 80.1041 87.6141 79.3703 87.0674C79.0006 86.7922 78.5061 86.7205 78.1459 87.0674C77.8476 87.3547 77.774 87.9698 78.1459 88.2466V88.2462Z" fill="#211715"/>
<path d="M78.7594 87.6381C79.0482 87.7955 79.0482 88.1888 78.7594 88.3462L32.389 113.625L32.328 113.592L13.5027 103.329C13.2139 103.172 13.2139 102.779 13.5027 102.621L59.6567 77.4602C59.7904 77.387 59.9558 77.387 60.0896 77.4602L78.7594 87.6381Z" fill="#48A0F0"/>
<path d="M61.4478 31.9478V28.8241C61.4478 27.861 60.3438 27.2592 59.4602 27.7408L3.7044 58.1365C3.2944 58.3601 3.04199 58.773 3.04199 59.2198V102.421C18.0331 94.2472 46.455 78.7528 61.4478 70.5792V31.9478Z" fill="white"/>
<path d="M61.7371 116.705C59.7175 115.604 57.6974 114.503 55.6777 113.402L46.0222 108.138L43.8098 106.932C42.8431 106.405 41.9698 107.818 42.9357 108.344C44.9554 109.446 46.9755 110.546 48.9952 111.648L58.6507 116.911C59.388 117.313 60.1257 117.716 60.863 118.117C61.8298 118.644 62.703 117.232 61.7371 116.705Z" fill="#211715"/>
<path d="M67.9884 94.686C70.0081 95.7873 72.0282 96.8882 74.0479 97.9895L83.7034 103.253L85.9158 104.459C86.8825 104.986 87.7558 103.574 86.7899 103.047C84.7702 101.946 82.7501 100.845 80.7304 99.7437L71.0749 94.48L68.8626 93.274C67.8958 92.747 67.0226 94.1595 67.9884 94.686Z" fill="#211715"/>
<path d="M3.90843 102.89V62.8127C3.90843 61.6978 3.83396 60.5577 3.90843 59.4441C3.94263 58.9294 4.3063 58.7524 4.70894 58.5329L6.12813 57.759L11.6352 54.7568C14.3229 53.2916 17.0102 51.8265 19.6979 50.3614C22.88 48.6264 26.0626 46.8918 29.2447 45.1569C32.5264 43.3676 35.8086 41.5786 39.0903 39.7893C42.075 38.1623 45.0593 36.5352 48.044 34.9082C50.3771 33.6364 52.7098 32.3646 55.043 31.0929L58.8892 28.9961C59.2473 28.8007 59.5962 28.5603 60.0348 28.7234C60.6496 28.952 60.582 29.5398 60.582 30.0398C60.582 31.8945 60.582 33.7489 60.582 35.6036V45.0555C60.582 48.6301 60.582 52.2046 60.582 55.7792C60.582 58.8931 60.582 62.0065 60.582 65.1203C60.582 66.9338 60.582 68.7472 60.582 70.5607C60.582 72.3741 60.7582 72.3909 61.6267 73.0049C61.9402 73.2265 62.293 73.3974 62.6316 73.5821L68.1161 76.5721L76.9776 81.4029C80.2524 83.1882 83.5267 84.9734 86.8015 86.7583C89.5862 88.2761 92.3705 89.7944 95.1552 91.3123L99.7271 93.8048C99.8145 93.8522 99.9067 93.8959 99.9907 93.9487C100.566 94.308 100.57 95.0103 99.9937 95.3717C99.7976 95.4948 99.5816 95.5966 99.3777 95.7077L95.1786 97.997L87.9302 101.949C84.8853 103.608 81.8404 105.268 78.7955 106.928C75.506 108.722 72.2165 110.515 68.9274 112.308C65.7916 114.018 62.6554 115.727 59.5196 117.437C56.8899 118.87 54.2602 120.304 51.6305 121.737C49.9065 122.677 48.183 123.617 46.459 124.557C45.8109 124.91 44.8952 125.66 44.1341 125.29C42.8842 124.682 41.6845 123.954 40.4675 123.291L32.694 119.053C29.4802 117.302 26.2669 115.549 23.0532 113.798C19.9152 112.087 16.7768 110.376 13.6388 108.665C11.3213 107.402 9.00374 106.138 6.68619 104.875L4.87649 103.888C4.43186 103.646 3.93527 103.457 3.90843 102.89C3.85907 101.841 2.12773 101.835 2.17709 102.889C2.22947 104.003 2.92002 104.71 3.8686 105.227L5.67267 106.211L12.6037 109.989C15.7642 111.712 18.9251 113.435 22.0856 115.159C25.3448 116.935 28.6035 118.712 31.8627 120.489C34.4682 121.909 37.0736 123.329 39.6791 124.75C40.8775 125.403 42.0624 126.09 43.279 126.713C44.7969 127.49 45.952 126.722 47.2062 126.038L52.315 123.252C54.952 121.815 57.5891 120.377 60.2262 118.94C63.4022 117.208 66.5783 115.477 69.7548 113.745C73.0751 111.935 76.3953 110.125 79.7151 108.315C82.7842 106.642 85.8534 104.968 88.9225 103.296C91.3548 101.97 93.7866 100.644 96.2189 99.3179L100.347 97.0674C100.663 96.8949 100.985 96.7351 101.266 96.5119C102.707 95.3668 102.274 93.3199 100.754 92.4762C99.3859 91.7166 98.0048 90.9775 96.6306 90.2282C93.8832 88.7303 91.1362 87.2329 88.3887 85.735C85.0914 83.9375 81.7945 82.14 78.4972 80.3425C75.4731 78.6938 72.449 77.0451 69.4249 75.3968L63.6404 72.2433C63.3464 72.0831 63.0351 71.9367 62.7524 71.7593C62.238 71.4367 62.3142 70.9454 62.3142 70.4446V55.0838C62.3142 51.4778 62.3142 47.8713 62.3142 44.2653C62.3142 41.158 62.3142 38.0507 62.3142 34.9434C62.3142 33.2321 62.3142 31.5209 62.3142 29.81C62.3142 28.0992 61.7605 27.5269 60.4703 27.141C59.6148 26.8855 58.8217 27.1442 58.0917 27.5424L54.3528 29.5807C52.0227 30.8509 49.6931 32.121 47.363 33.3912C44.3445 35.0366 41.326 36.6824 38.3071 38.3278C34.9951 40.1335 31.6831 41.9392 28.3706 43.7449C25.1599 45.495 21.9496 47.2455 18.7389 48.9955C16.0248 50.475 13.3111 51.9545 10.597 53.4343C8.77471 54.4277 6.95245 55.4211 5.13019 56.4145C3.8266 57.1254 2.28359 57.7079 2.18055 59.3681C2.11258 60.4608 2.17709 61.5744 2.17709 62.6683V70.7806C2.17709 74.293 2.17709 77.8055 2.17709 81.3179C2.17709 84.8303 2.17709 88.3497 2.17709 91.8658V102.889C2.17709 103.941 3.90843 103.943 3.90843 102.89Z" fill="#211715"/>
<path d="M56.0159 72.5965C54.4071 73.4738 52.7979 74.3507 51.1891 75.228C47.3263 77.3337 43.464 79.4394 39.6013 81.5452C34.9472 84.0826 30.2926 86.6196 25.6385 89.1571L13.568 95.7372C11.6124 96.8033 9.6018 97.8118 7.68732 98.943C7.65918 98.9593 7.63018 98.9741 7.6016 98.99C6.63657 99.5161 7.50765 100.93 8.47571 100.402C10.0845 99.5247 11.6938 98.6478 13.3026 97.7706C17.1653 95.6648 21.0276 93.5591 24.8903 91.4533C29.5445 88.9159 34.1991 86.3789 38.8532 83.8414L50.9237 77.2613C52.8793 76.1952 54.8899 75.1867 56.8043 74.0555C56.8325 74.0392 56.8615 74.0245 56.8901 74.0085C57.8551 73.4824 56.984 72.0687 56.0159 72.5965Z" fill="#211715"/>
</g>
<path d="M2.14844 21.4011C2.79606 21.367 3.32203 21.0829 3.88562 20.7734C5.00818 20.1571 6.05272 19.7625 7.27032 19.3837C8.8289 18.8988 10.4262 18.6429 12.0336 18.375" stroke="black" stroke-width="3" stroke-linecap="round"/>
<path d="M37.6543 10.1035C37.6543 11.8649 37.6765 13.6284 38.1026 15.3487C38.3859 16.4923 39.0145 17.6073 39.2234 18.7558C39.4684 20.1036 39.0737 22.0205 39.6717 23.2164" stroke="black" stroke-width="3" stroke-linecap="round"/>
<path d="M39.6719 9.49842C42.847 8.06962 46.7327 8.82292 46.7327 12.7486C46.7327 14.8378 45.8628 15.2838 43.9196 15.9316C43.0999 16.2048 42.1781 16.3006 41.4875 16.761" stroke="black" stroke-width="3" stroke-linecap="round"/>
<path d="M56.2344 3.35449C56.2989 4.77328 56.7578 6.03616 57.0199 7.41238C57.2516 8.62845 57.4991 9.91998 57.5942 11.156C57.6917 12.423 57.6972 13.6859 57.6972 14.9593" stroke="black" stroke-width="3" stroke-linecap="round"/>
<path d="M53.4072 6.47505C53.8106 5.21508 54.5775 3.66509 54.5775 2.2763C54.5775 1.41431 55.521 1.87696 56.089 2.08668C57.146 2.47696 58.0638 2.97311 59.1609 3.20273C59.7307 3.322 60.1791 3.7065 60.7212 3.84203" stroke="black" stroke-width="3" stroke-linecap="round"/>
<path d="M6.65092 20.3086C6.65092 22.951 6.28902 25.8763 7.0544 28.448C7.30825 29.301 7.25614 30.1157 7.25614 31.0087" stroke="black" stroke-width="3" stroke-linecap="round"/>
<path d="M19.3603 16.1939C19.3603 18.1528 18.5716 20.1085 19.1922 22.047C19.4585 22.8789 20.8514 25.6594 21.9044 25.6594C24.49 25.6594 29.7198 25.101 29.8506 21.4982C29.9212 19.5556 29.6733 17.989 28.0238 16.8112C26.1851 15.4984 23.135 15.165 20.9742 15.165" stroke="black" stroke-width="3" stroke-linecap="round"/>
<defs>
<clipPath id="clip0_2253_902">
<rect width="100" height="102" fill="white" transform="translate(2.14844 25.8457)"/>
</clipPath>
</defs>
</svg>
