<svg width="184" height="81" viewBox="0 0 184 81" fill="none" xmlns="http://www.w3.org/2000/svg">
<path d="M81.756 28.5863H89.556V30.1703H81.756V28.5863ZM81.228 36.1943H90.396V37.8263H81.228V36.1943ZM85.188 36.9863H86.916V47.3783C86.916 48.3383 86.724 48.8663 86.028 49.1303C85.356 49.4183 84.3 49.4423 82.644 49.4423C82.572 48.9623 82.308 48.2183 82.068 47.7383C83.292 47.7623 84.42 47.7623 84.756 47.7383C85.092 47.7383 85.188 47.6423 85.188 47.3543V36.9863ZM89.004 28.5863H89.388L89.724 28.4903L90.876 29.2583C89.724 31.1063 87.996 33.1703 86.484 34.4423C86.22 34.1303 85.74 33.6503 85.428 33.3863C86.748 32.2583 88.26 30.3143 89.004 28.9463V28.5863ZM89.892 36.1943H90.156L90.42 36.1223L91.548 36.4343C90.924 38.3063 90.156 40.3943 89.532 41.7143L88.14 41.3543C88.716 40.1303 89.412 38.1143 89.892 36.4583V36.1943ZM82.428 32.7863L83.388 31.5863C85.404 32.6423 87.828 34.2503 89.004 35.4743L87.972 36.7943C86.82 35.5463 84.444 33.8663 82.428 32.7863ZM91.044 28.5383H103.236V30.0983H91.044V28.5383ZM93.636 37.4663V39.8183H100.668V37.4663H93.636ZM93.636 41.1383V43.5143H100.668V41.1383H93.636ZM93.636 33.7943V36.1223H100.668V33.7943H93.636ZM91.956 32.4023H102.42V44.9303H91.956V32.4023ZM96.204 29.3063L98.244 29.5463C97.836 30.9383 97.404 32.4503 97.02 33.4583L95.436 33.1463C95.724 32.0663 96.06 30.4103 96.204 29.3063ZM94.356 45.3623L95.94 46.2983C94.62 47.5703 92.364 48.8663 90.444 49.5863C90.18 49.2263 89.604 48.6743 89.244 48.3623C91.164 47.6663 93.324 46.4183 94.356 45.3623ZM98.076 46.3943L99.444 45.4823C100.908 46.3223 102.756 47.6183 103.74 48.5303L102.3 49.5623C101.412 48.6743 99.564 47.3063 98.076 46.3943ZM118.044 37.7303L119.508 36.9863C120.876 38.6663 122.316 40.9703 122.892 42.5063L121.308 43.3463C120.78 41.8343 119.388 39.4583 118.044 37.7303ZM118.188 31.7543H127.308V33.4583H118.188V31.7543ZM126.588 31.7543H128.316C128.316 31.7543 128.316 32.4503 128.316 32.6903C127.908 43.5143 127.524 47.2583 126.54 48.4583C125.988 49.1543 125.46 49.3463 124.548 49.4423C123.732 49.5143 122.268 49.4903 120.828 49.3943C120.78 48.8663 120.564 48.0983 120.252 47.5943C121.836 47.7383 123.324 47.7383 123.924 47.7383C124.404 47.7383 124.716 47.6903 124.956 47.3783C125.796 46.5143 126.204 42.5303 126.588 32.1623V31.7543ZM119.076 27.4103L120.924 27.8183C119.868 31.2983 118.212 34.6583 116.388 36.8423C116.028 36.5543 115.236 36.0263 114.78 35.7863C116.652 33.7703 118.188 30.6023 119.076 27.4103ZM110.46 27.4343L112.068 28.0343C111.156 29.8103 110.004 31.9463 109.068 33.2423L107.82 32.7143C108.732 31.3223 109.836 29.0183 110.46 27.4343ZM113.364 30.1703L114.924 30.8423C113.244 33.5303 110.892 36.9863 109.068 39.0503L107.916 38.4503C109.764 36.3143 112.044 32.7143 113.364 30.1703ZM106.668 32.4743L107.58 31.2743C108.924 32.4023 110.436 33.9863 111.084 35.0423L110.124 36.4103C109.476 35.2823 107.964 33.6263 106.668 32.4743ZM112.596 35.7383L113.94 35.1623C114.948 36.6983 115.98 38.7623 116.34 40.0823L114.9 40.7543C114.54 39.4103 113.58 37.3223 112.596 35.7383ZM106.62 38.1623C108.78 38.0903 111.972 37.9703 115.14 37.8263V39.2903C112.092 39.4823 109.044 39.6503 106.764 39.7703L106.62 38.1623ZM113.196 41.4743L114.564 41.0423C115.26 42.5063 115.932 44.4023 116.196 45.6503L114.732 46.1543C114.516 44.9063 113.868 42.9623 113.196 41.4743ZM107.94 41.1383L109.5 41.4263C109.164 43.6823 108.564 46.0103 107.796 47.5463C107.484 47.3543 106.764 47.0183 106.38 46.8503C107.172 45.3863 107.652 43.2503 107.94 41.1383ZM110.7 38.8583H112.332V49.5623H110.7V38.8583ZM139.86 27.3623L141.732 27.7223C140.868 29.0663 139.812 30.4823 138.972 31.4663L137.484 31.0823C138.3 30.0503 139.332 28.4663 139.86 27.3623ZM145.212 28.8023L146.532 28.0583C148.476 29.2343 150.876 31.0103 152.076 32.2583L150.66 33.0743C149.532 31.8503 147.18 30.0023 145.212 28.8023ZM138.06 34.3703L139.38 33.9383C140.052 34.8023 140.796 35.9783 141.108 36.7703L139.74 37.2743C139.476 36.4823 138.756 35.2583 138.06 34.3703ZM133.98 30.5543C137.772 30.4823 143.724 30.2903 149.364 30.0743L149.292 31.4663C143.796 31.7303 137.964 31.9463 134.076 32.0663L133.98 30.5543ZM136.092 32.4983L137.724 32.9303C136.956 34.2983 136.092 35.8583 135.372 36.8663L134.148 36.4583C134.844 35.3783 135.66 33.6743 136.092 32.4983ZM132.492 36.0743C134.364 36.0023 137.028 35.8103 139.74 35.5943L139.764 36.8663C137.172 37.1063 134.628 37.3223 132.636 37.4903L132.492 36.0743ZM150.084 34.2743L151.38 33.6983C152.46 34.7543 153.612 36.2183 154.116 37.2743L152.748 37.9223C152.268 36.8903 151.14 35.3783 150.084 34.2743ZM147.588 32.4263L149.244 32.8583C148.572 34.1783 147.804 35.7143 147.156 36.6983L145.932 36.2903C146.508 35.2103 147.228 33.5783 147.588 32.4263ZM145.428 35.9063C147.276 35.8343 149.892 35.6903 152.58 35.5223V36.6983C150.18 36.9143 147.708 37.1303 145.764 37.2983L145.428 35.9063ZM143.868 38.2103L145.212 38.8823C143.22 40.4423 140.004 41.8583 137.364 42.6503C137.1 42.3143 136.692 41.8343 136.332 41.5223C138.9 40.8263 142.116 39.5543 143.868 38.2103ZM146.484 40.5383L147.876 41.2343C145.404 43.3223 141.252 44.9303 137.436 45.8423C137.22 45.4583 136.836 44.8823 136.476 44.5223C140.148 43.7783 144.276 42.3383 146.484 40.5383ZM149.316 42.9623L150.828 43.6823C147.852 46.8503 142.332 48.6503 136.26 49.5143C136.092 49.0823 135.732 48.4343 135.396 48.0263C141.252 47.3303 146.652 45.7223 149.316 42.9623ZM143.076 35.2823C141.012 37.8983 137.004 40.5143 132.876 42.0263C132.708 41.6423 132.348 41.0663 132.036 40.7063C136.284 39.3143 140.244 36.6023 142.188 33.8663H143.796C146.388 37.0103 150.636 39.3863 154.452 40.4183C154.092 40.8023 153.756 41.4023 153.54 41.8103C149.748 40.5863 145.476 38.1143 143.076 35.2823ZM160.188 41.5703H168.54V42.7703H160.188V41.5703ZM160.188 44.1863H168.54V45.3863H160.188V44.1863ZM160.068 46.8023H169.092V48.1223H160.068V46.8023ZM157.812 29.0423H169.284V30.3863H157.812V29.0423ZM163.356 39.6023H164.892V47.6423H163.356V39.6023ZM160.452 27.4823H162.012V31.9463H160.452V27.4823ZM165.204 27.4823H166.764V31.9463H165.204V27.4823ZM159.684 33.6263V35.6903H161.7V33.6263H159.684ZM158.412 32.4503H163.044V36.8663H158.412V32.4503ZM165.372 33.6263V35.6903H167.556V33.6263H165.372ZM164.1 32.4503H168.876V36.8663H164.1V32.4503ZM160.812 38.8583H169.02V40.1783H160.812V49.2983H159.3V40.0103L160.356 38.8583H160.812ZM164.436 36.8183L165.948 37.2023C165.492 38.1623 165.012 39.1943 164.604 39.8903L163.428 39.5063C163.788 38.7383 164.22 37.5623 164.436 36.8183ZM160.38 36.7223L161.772 37.1063C160.956 39.5063 159.588 41.9063 158.148 43.5143C157.956 43.2263 157.476 42.5783 157.188 42.2903C158.508 40.8983 159.684 38.8343 160.38 36.7223ZM171.708 33.8183V36.2423H177.036V33.8183H171.708ZM171.708 37.6823V40.1543H177.036V37.6823H171.708ZM171.708 29.9543V32.3543H177.036V29.9543H171.708ZM170.148 28.3703H178.692V41.7383H170.148V28.3703ZM174.828 41.2823H176.388V46.9943C176.388 47.5223 176.46 47.5943 176.82 47.5943C176.988 47.5943 177.708 47.5943 177.924 47.5943C178.356 47.5943 178.452 47.2583 178.5 44.4263C178.812 44.7143 179.484 44.9543 179.916 45.0983C179.796 48.3143 179.388 49.1063 178.116 49.1063C177.828 49.1063 176.892 49.1063 176.604 49.1063C175.14 49.1063 174.828 48.6263 174.828 47.0183V41.2823ZM171.684 41.4503H173.244C173.028 45.5303 172.236 48.0263 168.852 49.4903C168.66 49.1063 168.204 48.4823 167.844 48.1943C170.892 46.9943 171.516 44.9543 171.684 41.4503Z" fill="white"/>
<path d="M8 20.0703C8 17.9486 8.84285 15.9137 10.3431 14.4135C11.8434 12.9132 13.8783 12.0703 16 12.0703H44C46.1217 12.0703 48.1566 12.9132 49.6569 14.4135C51.1571 15.9137 52 17.9486 52 20.0703V36.0703C52 38.192 51.1571 40.2269 49.6569 41.7272C48.1566 43.2275 46.1217 44.0703 44 44.0703H36L24 56.0703V44.0703H16C13.8783 44.0703 11.8434 43.2275 10.3431 41.7272C8.84285 40.2269 8 38.192 8 36.0703V20.0703Z" fill="white"/>
<path d="M60 28.0703V36.0703C60 40.3138 58.3143 44.3834 55.3138 47.384C52.3132 50.3846 48.2435 52.0703 44 52.0703H39.312L32.248 59.1383C33.368 59.7343 34.644 60.0703 36 60.0703H44L56 72.0703V60.0703H64C66.1218 60.0703 68.1566 59.2275 69.6569 57.7272C71.1572 56.2269 72 54.192 72 52.0703V36.0703C72 33.9486 71.1572 31.9137 69.6569 30.4135C68.1566 28.9132 66.1218 28.0703 64 28.0703H60Z" fill="white"/>
</svg>
