<svg width="211" height="88" viewBox="0 0 211 88" fill="none" xmlns="http://www.w3.org/2000/svg">
<rect x="0.392578" y="4.11328" width="210" height="80" rx="40" fill="#48A0F0"/>
<path d="M103.378 35.3636H109.878V36.6836H103.378V35.3636ZM102.938 41.7036H110.578V43.0636H102.938V41.7036ZM106.238 42.3636H107.678V51.0236C107.678 51.8236 107.518 52.2636 106.938 52.4836C106.378 52.7236 105.498 52.7436 104.118 52.7436C104.058 52.3436 103.838 51.7236 103.638 51.3236C104.658 51.3436 105.598 51.3436 105.878 51.3236C106.158 51.3236 106.238 51.2436 106.238 51.0036V42.3636ZM109.418 35.3636H109.738L110.018 35.2836L110.978 35.9236C110.018 37.4636 108.578 39.1836 107.318 40.2436C107.098 39.9836 106.698 39.5836 106.438 39.3636C107.538 38.4236 108.798 36.8036 109.418 35.6636V35.3636ZM110.158 41.7036H110.378L110.598 41.6436L111.538 41.9036C111.018 43.4636 110.378 45.2036 109.858 46.3036L108.698 46.0036C109.178 44.9836 109.758 43.3036 110.158 41.9236V41.7036ZM103.938 38.8636L104.738 37.8636C106.418 38.7436 108.438 40.0836 109.418 41.1036L108.558 42.2036C107.598 41.1636 105.618 39.7636 103.938 38.8636ZM111.118 35.3236H121.278V36.6236H111.118V35.3236ZM113.278 42.7636V44.7236H119.138V42.7636H113.278ZM113.278 45.8236V47.8036H119.138V45.8236H113.278ZM113.278 39.7036V41.6436H119.138V39.7036H113.278ZM111.878 38.5436H120.598V48.9836H111.878V38.5436ZM115.418 35.9636L117.118 36.1636C116.778 37.3236 116.418 38.5836 116.098 39.4236L114.778 39.1636C115.018 38.2636 115.298 36.8836 115.418 35.9636ZM113.878 49.3436L115.198 50.1236C114.098 51.1836 112.218 52.2636 110.618 52.8636C110.398 52.5636 109.918 52.1036 109.618 51.8436C111.218 51.2636 113.018 50.2236 113.878 49.3436ZM116.978 50.2036L118.118 49.4436C119.338 50.1436 120.878 51.2236 121.698 51.9836L120.498 52.8436C119.758 52.1036 118.218 50.9636 116.978 50.2036ZM133.618 42.9836L134.838 42.3636C135.978 43.7636 137.178 45.6836 137.658 46.9636L136.338 47.6636C135.898 46.4036 134.738 44.4236 133.618 42.9836ZM133.738 38.0036H141.338V39.4236H133.738V38.0036ZM140.738 38.0036H142.178C142.178 38.0036 142.178 38.5836 142.178 38.7836C141.838 47.8036 141.518 50.9236 140.698 51.9236C140.238 52.5036 139.798 52.6636 139.038 52.7436C138.358 52.8036 137.138 52.7836 135.938 52.7036C135.898 52.2636 135.718 51.6236 135.458 51.2036C136.778 51.3236 138.018 51.3236 138.518 51.3236C138.918 51.3236 139.178 51.2836 139.378 51.0236C140.078 50.3036 140.418 46.9836 140.738 38.3436V38.0036ZM134.478 34.3836L136.018 34.7236C135.138 37.6236 133.758 40.4236 132.238 42.2436C131.938 42.0036 131.278 41.5636 130.898 41.3636C132.458 39.6836 133.738 37.0436 134.478 34.3836ZM127.298 34.4036L128.638 34.9036C127.878 36.3836 126.918 38.1636 126.138 39.2436L125.098 38.8036C125.858 37.6436 126.778 35.7236 127.298 34.4036ZM129.718 36.6836L131.018 37.2436C129.618 39.4836 127.658 42.3636 126.138 44.0836L125.178 43.5836C126.718 41.8036 128.618 38.8036 129.718 36.6836ZM124.138 38.6036L124.898 37.6036C126.018 38.5436 127.278 39.8636 127.818 40.7436L127.018 41.8836C126.478 40.9436 125.218 39.5636 124.138 38.6036ZM129.078 41.3236L130.198 40.8436C131.038 42.1236 131.898 43.8436 132.198 44.9436L130.998 45.5036C130.698 44.3836 129.898 42.6436 129.078 41.3236ZM124.098 43.3436C125.898 43.2836 128.558 43.1836 131.198 43.0636V44.2836C128.658 44.4436 126.118 44.5836 124.218 44.6836L124.098 43.3436ZM129.578 46.1036L130.718 45.7436C131.298 46.9636 131.858 48.5436 132.078 49.5836L130.858 50.0036C130.678 48.9636 130.138 47.3436 129.578 46.1036ZM125.198 45.8236L126.498 46.0636C126.218 47.9436 125.718 49.8836 125.078 51.1636C124.818 51.0036 124.218 50.7236 123.898 50.5836C124.558 49.3636 124.958 47.5836 125.198 45.8236ZM127.498 43.9236H128.858V52.8436H127.498V43.9236ZM151.798 34.3436L153.358 34.6436C152.638 35.7636 151.758 36.9436 151.058 37.7636L149.818 37.4436C150.498 36.5836 151.358 35.2636 151.798 34.3436ZM156.258 35.5436L157.358 34.9236C158.978 35.9036 160.978 37.3836 161.978 38.4236L160.798 39.1036C159.858 38.0836 157.898 36.5436 156.258 35.5436ZM150.298 40.1836L151.398 39.8236C151.958 40.5436 152.578 41.5236 152.838 42.1836L151.698 42.6036C151.478 41.9436 150.878 40.9236 150.298 40.1836ZM146.898 37.0036C150.058 36.9436 155.018 36.7836 159.718 36.6036L159.658 37.7636C155.078 37.9836 150.218 38.1636 146.978 38.2636L146.898 37.0036ZM148.658 38.6236L150.018 38.9836C149.378 40.1236 148.658 41.4236 148.058 42.2636L147.038 41.9236C147.618 41.0236 148.298 39.6036 148.658 38.6236ZM145.658 41.6036C147.218 41.5436 149.438 41.3836 151.698 41.2036L151.718 42.2636C149.558 42.4636 147.438 42.6436 145.778 42.7836L145.658 41.6036ZM160.318 40.1036L161.398 39.6236C162.298 40.5036 163.258 41.7236 163.678 42.6036L162.538 43.1436C162.138 42.2836 161.198 41.0236 160.318 40.1036ZM158.238 38.5636L159.618 38.9236C159.058 40.0236 158.418 41.3036 157.878 42.1236L156.858 41.7836C157.338 40.8836 157.938 39.5236 158.238 38.5636ZM156.438 41.4636C157.978 41.4036 160.158 41.2836 162.398 41.1436V42.1236C160.398 42.3036 158.338 42.4836 156.718 42.6236L156.438 41.4636ZM155.138 43.3836L156.258 43.9436C154.598 45.2436 151.918 46.4236 149.718 47.0836C149.498 46.8036 149.158 46.4036 148.858 46.1436C150.998 45.5636 153.678 44.5036 155.138 43.3836ZM157.318 45.3236L158.478 45.9036C156.418 47.6436 152.958 48.9836 149.778 49.7436C149.598 49.4236 149.278 48.9436 148.978 48.6436C152.038 48.0236 155.478 46.8236 157.318 45.3236ZM159.678 47.3436L160.938 47.9436C158.458 50.5836 153.858 52.0836 148.798 52.8036C148.658 52.4436 148.358 51.9036 148.078 51.5636C152.958 50.9836 157.458 49.6436 159.678 47.3436ZM154.478 40.9436C152.758 43.1236 149.418 45.3036 145.978 46.5636C145.838 46.2436 145.538 45.7636 145.278 45.4636C148.818 44.3036 152.118 42.0436 153.738 39.7636H155.078C157.238 42.3836 160.778 44.3636 163.958 45.2236C163.658 45.5436 163.378 46.0436 163.198 46.3836C160.038 45.3636 156.478 43.3036 154.478 40.9436ZM168.738 46.1836H175.698V47.1836H168.738V46.1836ZM168.738 48.3636H175.698V49.3636H168.738V48.3636ZM168.638 50.5436H176.158V51.6436H168.638V50.5436ZM166.758 35.7436H176.318V36.8636H166.758V35.7436ZM171.378 44.5436H172.658V51.2436H171.378V44.5436ZM168.958 34.4436H170.258V38.1636H168.958V34.4436ZM172.918 34.4436H174.218V38.1636H172.918V34.4436ZM168.318 39.5636V41.2836H169.998V39.5636H168.318ZM167.258 38.5836H171.118V42.2636H167.258V38.5836ZM173.058 39.5636V41.2836H174.878V39.5636H173.058ZM171.998 38.5836H175.978V42.2636H171.998V38.5836ZM169.258 43.9236H176.098V45.0236H169.258V52.6236H167.998V44.8836L168.878 43.9236H169.258ZM172.278 42.2236L173.538 42.5436C173.158 43.3436 172.758 44.2036 172.418 44.7836L171.438 44.4636C171.738 43.8236 172.098 42.8436 172.278 42.2236ZM168.898 42.1436L170.058 42.4636C169.378 44.4636 168.238 46.4636 167.038 47.8036C166.878 47.5636 166.478 47.0236 166.238 46.7836C167.338 45.6236 168.318 43.9036 168.898 42.1436ZM178.338 39.7236V41.7436H182.778V39.7236H178.338ZM178.338 42.9436V45.0036H182.778V42.9436H178.338ZM178.338 36.5036V38.5036H182.778V36.5036H178.338ZM177.038 35.1836H184.158V46.3236H177.038V35.1836ZM180.938 45.9436H182.238V50.7036C182.238 51.1436 182.298 51.2036 182.598 51.2036C182.738 51.2036 183.338 51.2036 183.518 51.2036C183.878 51.2036 183.958 50.9236 183.998 48.5636C184.258 48.8036 184.818 49.0036 185.178 49.1236C185.078 51.8036 184.738 52.4636 183.678 52.4636C183.438 52.4636 182.658 52.4636 182.418 52.4636C181.198 52.4636 180.938 52.0636 180.938 50.7236V45.9436ZM178.318 46.0836H179.618C179.438 49.4836 178.778 51.5636 175.958 52.7836C175.798 52.4636 175.418 51.9436 175.118 51.7036C177.658 50.7036 178.178 49.0036 178.318 46.0836Z" fill="white"/>
<path d="M37 29.1133C37 27.522 37.6321 25.9959 38.7574 24.8706C39.8826 23.7454 41.4087 23.1133 43 23.1133H64C65.5913 23.1133 67.1174 23.7454 68.2426 24.8706C69.3679 25.9959 70 27.522 70 29.1133V41.1133C70 42.7046 69.3679 44.2307 68.2426 45.3559C67.1174 46.4811 65.5913 47.1133 64 47.1133H58L49 56.1133V47.1133H43C41.4087 47.1133 39.8826 46.4811 38.7574 45.3559C37.6321 44.2307 37 42.7046 37 41.1133V29.1133Z" fill="white"/>
<path d="M75.9995 35.1133V41.1133C75.9995 44.2959 74.7353 47.3481 72.4848 49.5986C70.2344 51.849 67.1821 53.1133 63.9995 53.1133H60.4835L55.1855 58.4143C56.0255 58.8613 56.9825 59.1133 57.9995 59.1133H63.9995L72.9995 68.1133V59.1133H78.9995C80.5908 59.1133 82.117 58.4811 83.2422 57.3559C84.3674 56.2307 84.9995 54.7046 84.9995 53.1133V41.1133C84.9995 39.522 84.3674 37.9959 83.2422 36.8706C82.117 35.7454 80.5908 35.1133 78.9995 35.1133H75.9995Z" fill="white"/>
</svg>
